<svg width="400" height="400" viewBox="0 0 400 400" fill="none" xmlns="http://www.w3.org/2000/svg">
  <!-- Fond -->
  <rect width="400" height="400" fill="#B25F46"/>
  
  <!-- Cœur + pattes en blanc -->
  <path d="M200 115 
           C145 65 75 75 75 145 
           C75 195 125 225 200 285 
           C275 225 325 195 325 145 
           C325 75 255 65 200 115 Z" 
        fill="none" 
        stroke="#FFFFFF" 
        stroke-width="32" 
        stroke-linejoin="round"/>
  
  <!-- Patte supérieure droite -->
  <ellipse cx="265" cy="155" rx="19" ry="24" fill="#FFFFFF" transform="rotate(-35 265 155)"/>
  <ellipse cx="285" cy="145" rx="14" ry="20" fill="#FFFFFF" transform="rotate(-25 285 145)"/>
  <ellipse cx="305" cy="150" rx="14" ry="19" fill="#FFFFFF" transform="rotate(-40 305 150)"/>
  <ellipse cx="322" cy="165" rx="13" ry="17" fill="#FFFFFF" transform="rotate(-50 322 165)"/>
  <ellipse cx="280" cy="185" rx="29" ry="23" fill="#FFFFFF" transform="rotate(-35 280 185)"/>
  
  <!-- Patte inférieure gauche -->
  <ellipse cx="155" cy="225" rx="17" ry="24" fill="#FFFFFF" transform="rotate(40 155 225)"/>
  <ellipse cx="135" cy="235" rx="13" ry="20" fill="#FFFFFF" transform="rotate(35 135 235)"/>
  <ellipse cx="175" cy="245" rx="15" ry="20" fill="#FFFFFF" transform="rotate(45 175 245)"/>
  <ellipse cx="195" cy="255" rx="12" ry="18" fill="#FFFFFF" transform="rotate(50 195 255)"/>
  <ellipse cx="170" cy="265" rx="30" ry="24" fill="#FFFFFF" transform="rotate(40 170 265)"/>
</svg>
